# Blender 4.3.2
# www.blender.org
mtllib GEO_ChessBoard_marble.mtl
o GEO_ChessBoard
v -0.275000 0.016940 0.275000
v 0.275000 0.016940 0.275000
v -0.275000 0.016940 -0.275000
v 0.275000 0.016940 -0.275000
v -0.221171 0.015314 0.222176
v -0.217614 0.015314 0.218652
v 0.217614 0.015314 0.218652
v 0.221171 0.015314 0.222176
v 0.221171 0.016940 0.222176
v 0.217614 0.016940 0.218652
v -0.217614 0.016940 0.218652
v -0.221171 0.016940 0.222176
v 0.217614 0.016940 -0.218652
v 0.221171 0.016940 -0.222176
v -0.221171 0.016940 -0.222176
v -0.217614 0.016940 -0.218652
v 0.217614 0.015314 -0.218652
v 0.221171 0.015314 -0.222176
v -0.221171 0.015314 -0.222176
v -0.217614 0.015314 -0.218652
v -0.302500 -0.030670 -0.302500
v -0.302500 -0.030670 0.302500
v 0.302500 -0.030670 0.302500
v 0.302500 -0.030670 -0.302500
v -0.302500 -0.010965 0.302500
v -0.293164 0.005751 0.293164
v 0.293164 0.005751 0.293164
v 0.302500 -0.010965 0.302500
v -0.293164 0.005751 -0.293164
v -0.302500 -0.010965 -0.302500
v 0.302500 -0.010965 -0.302500
v 0.293164 0.005751 -0.293164
v -0.290521 -0.029839 -0.290521
v -0.290521 -0.029839 0.290521
v 0.290521 -0.029839 0.290521
v 0.290521 -0.029839 -0.290521
v -0.290521 -0.017157 -0.290521
v -0.290521 -0.017157 0.290521
v 0.290521 -0.017157 0.290521
v 0.290521 -0.017157 -0.290521
v -0.309091 -0.029839 -0.309091
v -0.309091 -0.029839 0.309091
v 0.309091 -0.029839 0.309091
v 0.309091 -0.029839 -0.309091
v -0.309091 -0.017157 -0.309091
v -0.309091 -0.017157 0.309091
v 0.309091 -0.017157 0.309091
v 0.309091 -0.017157 -0.309091
vn 0.9779 0.2092 -0.0000
vn 1.0000 -0.0000 -0.0000
vn -0.0000 1.0000 -0.0000
vn -0.0000 0.2092 0.9779
vn -0.0000 -0.0000 1.0000
vn -0.7900 0.6131 -0.0000
vn -0.5245 0.8514 -0.0000
vn -0.0000 0.2092 -0.9779
vn -0.0000 -0.0000 -1.0000
vn -1.0000 -0.0000 -0.0000
vn -0.0000 -1.0000 -0.0000
vn 0.7900 0.6131 -0.0000
vn 0.5245 0.8514 -0.0000
vn -0.0000 0.6131 -0.7900
vn -0.0000 0.8514 -0.5245
vn -0.0000 0.6131 0.7900
vn -0.0000 0.8514 0.5245
vn -0.9779 0.2092 -0.0000
vt 0.420422 0.456913
vt 0.050910 0.456913
vt 0.050910 0.442226
vt 0.420422 0.442226
vt 0.851231 0.483689
vt 0.818355 0.523258
vt 0.548188 0.523258
vt 0.515311 0.483689
vt 0.842909 0.608414
vt 0.875785 0.647984
vt 0.539865 0.647984
vt 0.572742 0.608414
vt 0.849698 0.676760
vt 0.889267 0.709637
vt 0.477276 0.709637
vt 0.516845 0.676760
vt 0.889267 0.381099
vt 0.849698 0.413976
vt 0.516845 0.413976
vt 0.477276 0.381099
vt 0.808042 0.744113
vt 0.514625 0.744113
vt 0.512227 0.742176
vt 0.810440 0.742176
vt 0.429323 0.501520
vt 0.059811 0.501520
vt 0.059811 0.486833
vt 0.429323 0.486833
vt 0.902873 0.720731
vt 0.463669 0.720731
vt 0.409385 0.335421
vt 0.039873 0.335421
vt 0.039873 0.320734
vt 0.409385 0.320734
vt 0.975418 0.290429
vt 0.975418 0.024608
vt 0.976630 0.024608
vt 0.976630 0.290429
vt 0.971784 0.291697
vt 0.971784 0.024608
vt 0.972996 0.024608
vt 0.972996 0.291697
vt 0.973601 0.291697
vt 0.973601 0.024608
vt 0.974813 0.024608
vt 0.974813 0.291697
vt 0.964517 0.296001
vt 0.964517 0.024608
vt 0.965729 0.024608
vt 0.965729 0.296001
vt 0.127065 0.873711
vt 0.127065 0.625684
vt 0.371937 0.625684
vt 0.371937 0.873711
vt 0.810440 0.986430
vt 0.512227 0.986430
vt 0.514625 0.984493
vt 0.808042 0.984493
vt 0.968151 0.294775
vt 0.968151 0.024608
vt 0.969362 0.024608
vt 0.969362 0.294775
vt 0.969967 0.294775
vt 0.969967 0.024608
vt 0.971179 0.024608
vt 0.971179 0.294775
vt 0.977235 0.290429
vt 0.977235 0.024608
vt 0.978447 0.024608
vt 0.978447 0.290429
vt 0.966334 0.296001
vt 0.966334 0.024608
vt 0.967546 0.024608
vt 0.967546 0.296001
vt 0.463670 0.000000
vt 0.916860 0.000000
vt 0.916860 0.369512
vt 0.463670 0.369512
vt 0.463670 0.370005
vt 0.902873 0.370005
vt 0.886879 0.661590
vt 0.528772 0.661590
vt 0.504218 0.470082
vt 0.862325 0.470082
vt 0.561514 0.427901
vt 0.931027 0.427901
vt 0.925324 0.441057
vt 0.567217 0.441057
vt 0.036989 0.442992
vt 0.406501 0.442992
vt 0.400798 0.456147
vt 0.042691 0.456147
vt 0.036989 0.414544
vt 0.406501 0.414544
vt 0.400798 0.427700
vt 0.042691 0.427700
vt 0.045890 0.487599
vt 0.415402 0.487599
vt 0.409699 0.500754
vt 0.051592 0.500754
vt 0.944948 0.463307
vt 0.575436 0.463307
vt 0.575436 0.448620
vt 0.944948 0.448620
vt 0.013910 0.366221
vt 0.449154 0.366221
vt 0.463065 0.377563
vt 0.000000 0.377563
vt 0.449154 0.011342
vt 0.463065 0.000000
vt 0.449154 0.575422
vt 0.013910 0.575422
vt 0.000000 0.564080
vt 0.463065 0.564080
vt 0.408972 0.535239
vt 0.054093 0.535239
vt 0.042751 0.521329
vt 0.420314 0.521329
vt 0.908535 0.548426
vt 0.530972 0.548426
vt 0.530972 0.538973
vt 0.908535 0.538973
vt 0.908535 0.558484
vt 0.530972 0.558484
vt 0.530972 0.549031
vt 0.908535 0.549031
vt 0.908535 0.568542
vt 0.530972 0.568542
vt 0.530972 0.559089
vt 0.908535 0.559089
vt 0.908535 0.578600
vt 0.530972 0.578600
vt 0.530972 0.569147
vt 0.908535 0.569147
vt 0.054093 0.970483
vt 0.408972 0.970483
vt 0.420314 0.984394
vt 0.042751 0.984393
vt 0.013910 0.930301
vt 0.449154 0.930301
vt 0.463065 0.941643
vt 0.000000 0.941643
vt 0.013910 0.011342
vt 0.000000 0.000000
s 1
usemtl MAT_WoodenChessBoard
f 31/1/1 28/2/1 23/3/2 24/4/2
f 2/5/3 9/6/3 12/7/3 1/8/3
f 14/9/3 4/10/3 3/11/3 15/12/3
f 15/13/3 3/14/3 1/15/3 12/16/3
f 4/17/3 14/18/3 9/19/3 2/20/3
f 7/21/3 6/22/3 5/23/3 8/24/3
f 28/25/4 25/26/4 22/27/5 23/28/5
f 29/29/6 26/30/6 1/15/7 3/14/7
f 30/31/8 31/32/8 24/33/9 21/34/9
f 16/35/9 13/36/9 17/37/9 20/38/9
f 11/39/10 16/40/10 20/41/10 6/42/10
f 13/43/2 10/44/2 7/45/2 17/46/2
f 15/47/2 12/48/2 5/49/2 19/50/2
f 16/51/3 11/52/3 10/53/3 13/54/3
f 18/55/3 19/56/3 20/57/3 17/58/3
f 19/56/3 5/23/3 6/22/3 20/57/3
f 8/24/3 18/55/3 17/58/3 7/21/3
f 14/59/5 15/60/5 19/61/5 18/62/5
f 12/63/9 9/64/9 8/65/9 5/66/9
f 10/67/5 11/68/5 6/69/5 7/70/5
f 9/71/10 14/72/10 18/73/10 8/74/10
f 22/75/11 21/76/11 24/77/11 23/78/11
f 27/79/12 32/80/12 4/17/13 2/20/13
f 32/81/14 29/82/14 3/11/15 4/10/15
f 26/83/16 27/84/16 2/5/17 1/8/17
f 30/85/18 25/86/18 26/87/6 29/88/6
f 28/89/1 31/90/1 32/91/12 27/92/12
f 31/93/8 30/94/8 29/95/14 32/96/14
f 25/97/4 28/98/4 27/99/16 26/100/16
f 25/101/18 30/102/18 21/103/10 22/104/10
f 34/105/3 33/106/3 41/107/3 42/108/3
f 33/106/3 36/109/3 44/110/3 41/107/3
f 37/111/11 38/112/11 46/113/11 45/114/11
f 40/115/11 37/116/11 45/117/11 48/118/11
f 41/119/5 44/120/5 48/121/5 45/122/5
f 42/123/2 41/124/2 45/125/2 46/126/2
f 43/127/9 42/128/9 46/129/9 47/130/9
f 44/131/10 43/132/10 47/133/10 48/134/10
f 38/135/11 39/136/11 47/137/11 46/138/11
f 39/139/11 40/140/11 48/141/11 47/142/11
f 35/143/3 34/105/3 42/108/3 43/144/3
f 36/109/3 35/143/3 43/144/3 44/110/3